<svg width="956" height="956" viewBox="0 0 956 956" fill="none" xmlns="http://www.w3.org/2000/svg">
<path d="M218.741 215.66C207.164 219.768 195.775 229.384 190.173 239.747C184.571 250.11 184.852 240.494 184.852 414.516V573.88L177.57 584.523C173.555 590.405 166.927 599.741 162.819 605.436C144.147 631.016 118.1 668.267 115.205 673.495C110.631 681.804 108.11 692.54 108.764 700.195C109.977 712.332 115.952 724.936 123.701 731.751C127.809 735.392 137.985 741.087 143.587 742.861C147.508 744.168 185.412 744.261 478.373 744.074C744.821 743.981 809.426 743.701 812.133 742.674C818.762 740.34 828.844 734.832 831.739 731.844C835.846 727.83 841.821 718.867 844.622 712.519C848.357 704.303 848.637 694.127 845.556 684.044C842.568 674.522 837.34 666.213 819.602 642.313C806.905 625.321 784.032 593.392 775.07 580.042L771.148 574.254V414.702C771.148 257.205 771.148 254.965 769.281 248.99C766.854 241.241 759.198 229.758 753.037 224.809C750.423 222.756 745.101 219.488 741.273 217.621L734.271 214.26L478.934 214.073C230.691 213.886 223.502 213.886 218.741 215.66ZM731.471 236.479C734.552 237.973 738.286 240.214 739.78 241.614C743.421 245.068 748.182 252.631 749.489 257.299C750.329 260.193 750.609 298.843 750.609 414.422V567.625L747.902 570.613L745.195 573.693L479.214 573.88C214.82 574.16 213.326 574.16 210.245 572.293C208.565 571.266 206.791 569.306 206.324 567.999C205.671 566.411 205.484 510.302 205.577 409.941L205.857 254.218L209.218 248.709C213.513 241.894 218.741 237.693 226.21 235.359C231.905 233.492 235.639 233.492 478.934 233.679L725.869 233.865L731.471 236.479ZM758.545 595.82C761.252 597.967 766.947 605.436 787.3 633.91C794.488 643.9 805.038 658.557 810.733 666.399C825.67 687.032 825.297 686.192 825.297 695.621C825.297 702.716 824.923 704.303 822.403 709.345C819.042 716.16 815.868 718.961 808.959 721.575L803.731 723.535H477.627C113.898 723.535 147.041 724.189 138.732 716.907C132.57 711.492 129.77 705.143 129.77 696.741C129.77 692.167 130.33 688.806 131.263 686.845C132.85 683.858 139.572 674.335 168.514 633.91C176.823 622.334 185.598 609.917 188.026 606.276C190.36 602.542 193.814 598.434 195.495 597.127L198.762 594.699L272.329 594.419C312.754 594.326 438.136 594.139 550.914 593.952L755.931 593.766L758.545 595.82Z" fill="#F6F6F6"/>
<path d="M235.172 259.819C233.398 260.939 231.064 263.74 229.851 266.074L227.797 270.275L227.984 407.047C228.264 537.19 228.357 544.005 229.944 546.432C230.878 547.926 232.932 549.887 234.612 550.82C237.6 552.688 241.334 552.688 478.934 552.688H720.268L724.002 550.54L727.736 548.393L728.016 407.514C728.203 303.511 727.923 265.888 727.176 263.927C726.523 262.527 724.935 260.566 723.535 259.539C720.921 257.672 718.4 257.672 479.587 257.672H238.346L235.172 259.819Z" fill="#F6F6F6"/>
<path d="M270.649 614.305C253.564 614.678 248.243 615.052 247.029 616.079C246.189 616.825 242.361 621.867 238.627 627.282C221.262 652.489 220.608 653.889 226.21 654.916C230.878 655.756 732.591 655.009 733.431 654.169C734.552 653.049 731.191 647.167 722.228 634.377C709.811 616.732 708.598 615.238 706.17 614.211C703.743 613.371 311.54 613.371 270.649 614.305Z" fill="#F6F6F6"/>
<path d="M387.441 680.216C380.066 686.471 380.159 696.554 387.628 701.129C390.616 702.996 392.109 702.996 477.813 702.996C562.304 702.996 565.011 702.903 568.465 701.129C574.814 697.955 576.868 690.113 572.947 684.231C568.372 677.416 574.44 677.789 477.347 677.789H390.429L387.441 680.216Z" fill="#F6F6F6"/>
<path d="M462.732 384.447C461.794 385.919 449.606 404.264 426.219 439.568C423.667 443.273 420.594 445.147 417 445.147H383.091C379.081 445.147 376.789 441.8 378.664 438.72L414.604 384.58C414.708 384.58 414.708 384.536 414.604 384.447L391.738 350.704C389.498 347.223 391.894 344.411 396.165 344.411H430.074C433.876 344.411 437.001 346.241 439.449 349.856L462.732 384.447ZM577.271 311.293L502.266 424.214V424.348L549.977 498.707C552.009 501.876 550.081 505 545.55 505H511.589C507.631 505 504.506 503.215 502.214 499.555L454.086 424.348C455.804 421.76 480.91 383.822 529.507 310.445C531.903 306.83 534.924 305 538.622 305H572.843C577.01 305 579.25 307.99 577.271 311.293Z" fill="#0C121F"/>
</svg>
