<svg width="1971" height="531" viewBox="0 0 1971 531" fill="none" xmlns="http://www.w3.org/2000/svg">
<path d="M110.741 1.6601C99.1643 5.76794 87.7745 15.384 82.1729 25.7469C76.5714 36.1097 76.8514 26.4937 76.8514 200.516V359.88L69.5694 370.523C65.555 376.405 58.9264 385.741 54.8186 391.436C36.1467 417.016 10.0995 454.266 7.20534 459.495C2.63073 467.803 0.110029 478.54 0.763544 486.195C1.97722 498.332 7.95222 510.936 15.701 517.751C19.8089 521.392 29.985 527.087 35.5866 528.861C39.5077 530.168 77.4116 530.261 370.373 530.074C636.821 529.981 701.426 529.701 704.133 528.674C710.762 526.34 720.844 520.832 723.739 517.844C727.846 513.83 733.821 504.867 736.622 498.519C740.357 490.303 740.637 480.127 737.556 470.044C734.568 460.521 729.34 452.212 711.602 428.312C698.905 411.321 676.032 379.392 667.069 366.042L663.148 360.253V200.702C663.148 43.205 663.148 40.9644 661.281 34.9894C658.854 27.2406 651.198 15.7574 645.037 10.8093C642.422 8.75543 637.101 5.48785 633.273 3.62067L626.271 0.259705L370.933 0.072998C122.691 -0.113708 115.502 -0.113708 110.741 1.6601ZM623.471 22.4793C626.551 23.973 630.286 26.2137 631.78 27.614C635.421 31.0683 640.182 38.6304 641.489 43.2984C642.329 46.1925 642.609 84.8433 642.609 200.422V353.625L639.902 356.612L637.194 359.693L371.214 359.88C106.82 360.16 105.326 360.16 102.245 358.293C100.565 357.266 98.7909 355.305 98.3241 353.998C97.6706 352.411 97.4839 296.302 97.5772 195.941L97.8573 40.2176L101.218 34.7094C105.513 27.8941 110.741 23.6929 118.21 21.3589C123.905 19.4918 127.639 19.4918 370.933 19.6785L617.869 19.8652L623.471 22.4793ZM650.545 381.82C653.252 383.967 658.947 391.436 679.299 419.91C686.488 429.9 697.038 444.557 702.733 452.399C717.67 473.032 717.297 472.191 717.297 481.621C717.297 488.716 716.923 490.303 714.403 495.345C711.042 502.16 707.867 504.961 700.959 507.575L695.731 509.535H369.626C5.8983 509.535 39.0409 510.189 30.7319 502.907C24.5702 497.492 21.7694 491.143 21.7694 482.741C21.7694 478.166 22.3296 474.805 23.2632 472.845C24.8503 469.857 31.5721 460.335 60.5135 419.91C68.8225 408.334 77.5983 395.917 80.0257 392.276C82.3596 388.541 85.8139 384.434 87.4944 383.127L90.762 380.699L164.329 380.419C204.754 380.326 330.135 380.139 442.914 379.952L647.931 379.766L650.545 381.82Z" fill="#F6F6F6"/>
<path d="M127.172 45.8192C125.398 46.9395 123.064 49.7402 121.851 52.0742L119.797 56.2754L119.984 193.047C120.264 323.19 120.357 330.005 121.944 332.432C122.878 333.926 124.932 335.887 126.612 336.82C129.6 338.688 133.334 338.688 370.934 338.688H612.268L616.002 336.54L619.736 334.393L620.016 193.514C620.203 89.5113 619.923 51.8875 619.176 49.927C618.523 48.5266 616.935 46.566 615.535 45.5391C612.921 43.6719 610.4 43.6719 371.587 43.6719H130.346L127.172 45.8192Z" fill="#F6F6F6"/>
<path d="M162.649 400.305C145.564 400.678 140.242 401.051 139.029 402.078C138.188 402.825 134.361 407.867 130.626 413.282C113.262 438.489 112.608 439.889 118.21 440.916C122.878 441.756 624.591 441.009 625.431 440.169C626.551 439.049 623.19 433.167 614.228 420.377C601.811 402.732 600.597 401.238 598.17 400.211C595.743 399.371 203.54 399.371 162.649 400.305Z" fill="#F6F6F6"/>
<path d="M279.441 466.216C272.066 472.471 272.159 482.554 279.628 487.129C282.615 488.996 284.109 488.996 369.813 488.996C454.303 488.996 457.011 488.903 460.465 487.129C466.813 483.955 468.867 476.113 464.946 470.231C460.372 463.416 466.44 463.789 369.346 463.789H282.429L279.441 466.216Z" fill="#F6F6F6"/>
<path d="M854.935 237.727C853.663 239.71 837.13 264.402 805.407 311.924C801.945 316.911 797.776 319.434 792.901 319.434H746.906C741.466 319.434 738.357 314.928 740.901 310.783L789.651 237.907C789.792 237.907 789.792 237.847 789.651 237.727L758.634 192.308C755.596 187.621 758.846 183.837 764.64 183.837H810.635C815.793 183.837 820.032 186.3 823.353 191.166L854.935 237.727ZM1010.3 139.258L908.56 291.257V291.438L973.278 391.529C976.034 395.794 973.42 400 967.273 400H921.207C915.837 400 911.598 397.597 908.489 392.67L843.206 291.438C845.538 287.953 879.592 236.886 945.512 138.117C948.762 133.25 952.86 130.787 957.876 130.787H1004.29C1009.95 130.787 1012.99 134.812 1010.3 139.258Z" fill="#F6F6F6"/>
<path d="M1068 373C1060.4 373 1053.4 371.1 1047 367.3C1040.8 363.5 1035.8 358.5 1032 352.3C1028.4 346.1 1026.6 339.2 1026.6 331.6V266.2H1164V241.9C1164 240.9 1163.6 240.1 1162.8 239.5C1162.2 238.7 1161.4 238.3 1160.4 238.3H1026.6V199H1161.9C1169.5 199 1176.4 200.9 1182.6 204.7C1189 208.5 1194 213.5 1197.6 219.7C1201.4 225.9 1203.3 232.8 1203.3 240.4V373H1068ZM1069.5 333.7H1164V301.6H1065.9V330.1C1065.9 331.1 1066.2 332 1066.8 332.8C1067.6 333.4 1068.5 333.7 1069.5 333.7ZM1236.7 373V157H1410.7C1418.3 157 1425.3 158.9 1431.7 162.7C1438.1 166.5 1443.2 171.6 1447 178C1450.8 184.2 1452.7 191.1 1452.7 198.7V331.3C1452.7 338.9 1450.8 345.9 1447 352.3C1443.2 358.5 1438.1 363.5 1431.7 367.3C1425.3 371.1 1418.3 373 1410.7 373H1236.7ZM1279.6 333.1H1408.9C1409.9 333.1 1410.8 332.8 1411.6 332.2C1412.4 331.4 1412.8 330.5 1412.8 329.5V200.5C1412.8 199.5 1412.4 198.7 1411.6 198.1C1410.8 197.3 1409.9 196.9 1408.9 196.9H1279.6C1278.6 196.9 1277.7 197.3 1276.9 198.1C1276.3 198.7 1276 199.5 1276 200.5V329.5C1276 330.5 1276.3 331.4 1276.9 332.2C1277.7 332.8 1278.6 333.1 1279.6 333.1ZM1526.2 373C1518.6 373 1511.7 371.1 1505.5 367.3C1499.3 363.5 1494.3 358.5 1490.5 352.3C1486.7 346.1 1484.8 339.2 1484.8 331.6V240.4C1484.8 232.8 1486.7 225.9 1490.5 219.7C1494.3 213.5 1499.3 208.5 1505.5 204.7C1511.7 200.9 1518.6 199 1526.2 199H1620.1C1627.7 199 1634.6 200.9 1640.8 204.7C1647.2 208.5 1652.2 213.5 1655.8 219.7C1659.6 225.9 1661.5 232.8 1661.5 240.4V331.6C1661.5 339.2 1659.6 346.1 1655.8 352.3C1652.2 358.5 1647.3 363.5 1641.1 367.3C1634.9 371.1 1627.9 373 1620.1 373H1526.2ZM1527.7 333.7H1618.6C1619.6 333.7 1620.4 333.4 1621 332.8C1621.8 332 1622.2 331.1 1622.2 330.1V241.9C1622.2 240.9 1621.8 240.1 1621 239.5C1620.4 238.7 1619.6 238.3 1618.6 238.3H1527.7C1526.7 238.3 1525.8 238.7 1525 239.5C1524.4 240.1 1524.1 240.9 1524.1 241.9V330.1C1524.1 331.1 1524.4 332 1525 332.8C1525.8 333.4 1526.7 333.7 1527.7 333.7ZM1693.41 373V199H1909.11C1916.91 199 1923.91 200.9 1930.11 204.7C1936.31 208.5 1941.21 213.5 1944.81 219.7C1948.61 225.9 1950.51 232.8 1950.51 240.4V373H1911.51V241.9C1911.51 240.9 1911.11 240.1 1910.31 239.5C1909.51 238.7 1908.61 238.3 1907.61 238.3H1845.51C1844.51 238.3 1843.61 238.7 1842.81 239.5C1842.21 240.1 1841.91 240.9 1841.91 241.9V373H1802.31V241.9C1802.31 240.9 1801.91 240.1 1801.11 239.5C1800.51 238.7 1799.71 238.3 1798.71 238.3H1736.31C1735.31 238.3 1734.41 238.7 1733.61 239.5C1733.01 240.1 1732.71 240.9 1732.71 241.9V373H1693.41Z" fill="#F6F6F6"/>
</svg>
