<svg width="2815" height="1300" viewBox="0 0 2815 1300" fill="none" xmlns="http://www.w3.org/2000/svg">
<path d="M586.741 387.66C575.164 391.768 563.774 401.384 558.173 411.747C552.571 422.11 552.851 412.494 552.851 586.516V745.88L545.569 756.523C541.555 762.405 534.926 771.741 530.819 777.436C512.147 803.016 486.099 840.266 483.205 845.495C478.631 853.803 476.11 864.54 476.764 872.195C477.977 884.332 483.952 896.936 491.701 903.751C495.809 907.392 505.985 913.087 511.587 914.861C515.508 916.168 553.412 916.261 846.373 916.074C1112.82 915.981 1177.43 915.701 1180.13 914.674C1186.76 912.34 1196.84 906.832 1199.74 903.844C1203.85 899.83 1209.82 890.867 1212.62 884.519C1216.36 876.303 1216.64 866.127 1213.56 856.044C1210.57 846.521 1205.34 838.212 1187.6 814.312C1174.9 797.321 1152.03 765.392 1143.07 752.042L1139.15 746.253V586.702C1139.15 429.205 1139.15 426.964 1137.28 420.989C1134.85 413.241 1127.2 401.757 1121.04 396.809C1118.42 394.755 1113.1 391.488 1109.27 389.621L1102.27 386.26L846.933 386.073C598.691 385.886 591.502 385.886 586.741 387.66ZM1099.47 408.479C1102.55 409.973 1106.29 412.214 1107.78 413.614C1111.42 417.068 1116.18 424.63 1117.49 429.298C1118.33 432.193 1118.61 470.843 1118.61 586.422V739.625L1115.9 742.612L1113.19 745.693L847.214 745.88C582.82 746.16 581.326 746.16 578.245 744.293C576.565 743.266 574.791 741.305 574.324 739.998C573.671 738.411 573.484 682.302 573.577 581.941L573.857 426.218L577.218 420.709C581.513 413.894 586.741 409.693 594.21 407.359C599.905 405.492 603.639 405.492 846.933 405.678L1093.87 405.865L1099.47 408.479ZM1126.54 767.819C1129.25 769.967 1134.95 777.436 1155.3 805.91C1162.49 815.9 1173.04 830.557 1178.73 838.399C1193.67 859.032 1193.3 858.191 1193.3 867.621C1193.3 874.716 1192.92 876.303 1190.4 881.345C1187.04 888.16 1183.87 890.961 1176.96 893.575L1171.73 895.535H845.626C481.898 895.535 515.041 896.189 506.732 888.907C500.57 883.492 497.769 877.143 497.769 868.741C497.769 864.166 498.33 860.805 499.263 858.845C500.85 855.857 507.572 846.335 536.514 805.91C544.823 794.334 553.598 781.917 556.026 778.276C558.36 774.541 561.814 770.434 563.494 769.127L566.762 766.699L640.329 766.419C680.754 766.326 806.135 766.139 918.914 765.952L1123.93 765.766L1126.54 767.819Z" fill="#F6F6F6"/>
<path d="M603.172 431.819C601.398 432.939 599.064 435.74 597.851 438.074L595.797 442.275L595.984 579.047C596.264 709.19 596.357 716.005 597.944 718.432C598.878 719.926 600.932 721.887 602.612 722.82C605.6 724.688 609.334 724.688 846.934 724.688H1088.27L1092 722.54L1095.74 720.393L1096.02 579.514C1096.2 475.511 1095.92 437.888 1095.18 435.927C1094.52 434.527 1092.94 432.566 1091.54 431.539C1088.92 429.672 1086.4 429.672 847.587 429.672H606.346L603.172 431.819Z" fill="#F6F6F6"/>
<path d="M638.649 786.305C621.564 786.678 616.242 787.051 615.029 788.078C614.188 788.825 610.361 793.867 606.626 799.282C589.262 824.489 588.608 825.889 594.21 826.916C598.878 827.756 1100.59 827.009 1101.43 826.169C1102.55 825.049 1099.19 819.167 1090.23 806.377C1077.81 788.732 1076.6 787.238 1074.17 786.211C1071.74 785.371 679.54 785.371 638.649 786.305Z" fill="#F6F6F6"/>
<path d="M755.441 852.216C748.066 858.471 748.159 868.554 755.628 873.129C758.615 874.996 760.109 874.996 845.813 874.996C930.303 874.996 933.011 874.903 936.465 873.129C942.813 869.955 944.867 862.113 940.946 856.231C936.372 849.416 942.44 849.789 845.346 849.789H758.429L755.441 852.216Z" fill="#F6F6F6"/>
<path d="M1330.93 623.727C1329.66 625.71 1313.13 650.402 1281.41 697.924C1277.94 702.911 1273.78 705.434 1268.9 705.434H1222.91C1217.47 705.434 1214.36 700.928 1216.9 696.783L1265.65 623.907C1265.79 623.907 1265.79 623.847 1265.65 623.727L1234.63 578.308C1231.6 573.621 1234.85 569.837 1240.64 569.837H1286.64C1291.79 569.837 1296.03 572.3 1299.35 577.166L1330.93 623.727ZM1486.3 525.258L1384.56 677.257V677.438L1449.28 777.529C1452.03 781.794 1449.42 786 1443.27 786H1397.21C1391.84 786 1387.6 783.597 1384.49 778.67L1319.21 677.438C1321.54 673.953 1355.59 622.886 1421.51 524.117C1424.76 519.25 1428.86 516.787 1433.88 516.787H1480.29C1485.95 516.787 1488.99 520.812 1486.3 525.258Z" fill="#F6F6F6"/>
<path d="M1544 759C1536.4 759 1529.4 757.1 1523 753.3C1516.8 749.5 1511.8 744.5 1508 738.3C1504.4 732.1 1502.6 725.2 1502.6 717.6V652.2H1640V627.9C1640 626.9 1639.6 626.1 1638.8 625.5C1638.2 624.7 1637.4 624.3 1636.4 624.3H1502.6V585H1637.9C1645.5 585 1652.4 586.9 1658.6 590.7C1665 594.5 1670 599.5 1673.6 605.7C1677.4 611.9 1679.3 618.8 1679.3 626.4V759H1544ZM1545.5 719.7H1640V687.6H1541.9V716.1C1541.9 717.1 1542.2 718 1542.8 718.8C1543.6 719.4 1544.5 719.7 1545.5 719.7ZM1712.7 759V543H1886.7C1894.3 543 1901.3 544.9 1907.7 548.7C1914.1 552.5 1919.2 557.6 1923 564C1926.8 570.2 1928.7 577.1 1928.7 584.7V717.3C1928.7 724.9 1926.8 731.9 1923 738.3C1919.2 744.5 1914.1 749.5 1907.7 753.3C1901.3 757.1 1894.3 759 1886.7 759H1712.7ZM1755.6 719.1H1884.9C1885.9 719.1 1886.8 718.8 1887.6 718.2C1888.4 717.4 1888.8 716.5 1888.8 715.5V586.5C1888.8 585.5 1888.4 584.7 1887.6 584.1C1886.8 583.3 1885.9 582.9 1884.9 582.9H1755.6C1754.6 582.9 1753.7 583.3 1752.9 584.1C1752.3 584.7 1752 585.5 1752 586.5V715.5C1752 716.5 1752.3 717.4 1752.9 718.2C1753.7 718.8 1754.6 719.1 1755.6 719.1ZM2002.2 759C1994.6 759 1987.7 757.1 1981.5 753.3C1975.3 749.5 1970.3 744.5 1966.5 738.3C1962.7 732.1 1960.8 725.2 1960.8 717.6V626.4C1960.8 618.8 1962.7 611.9 1966.5 605.7C1970.3 599.5 1975.3 594.5 1981.5 590.7C1987.7 586.9 1994.6 585 2002.2 585H2096.1C2103.7 585 2110.6 586.9 2116.8 590.7C2123.2 594.5 2128.2 599.5 2131.8 605.7C2135.6 611.9 2137.5 618.8 2137.5 626.4V717.6C2137.5 725.2 2135.6 732.1 2131.8 738.3C2128.2 744.5 2123.3 749.5 2117.1 753.3C2110.9 757.1 2103.9 759 2096.1 759H2002.2ZM2003.7 719.7H2094.6C2095.6 719.7 2096.4 719.4 2097 718.8C2097.8 718 2098.2 717.1 2098.2 716.1V627.9C2098.2 626.9 2097.8 626.1 2097 625.5C2096.4 624.7 2095.6 624.3 2094.6 624.3H2003.7C2002.7 624.3 2001.8 624.7 2001 625.5C2000.4 626.1 2000.1 626.9 2000.1 627.9V716.1C2000.1 717.1 2000.4 718 2001 718.8C2001.8 719.4 2002.7 719.7 2003.7 719.7ZM2169.41 759V585H2385.11C2392.91 585 2399.91 586.9 2406.11 590.7C2412.31 594.5 2417.21 599.5 2420.81 605.7C2424.61 611.9 2426.51 618.8 2426.51 626.4V759H2387.51V627.9C2387.51 626.9 2387.11 626.1 2386.31 625.5C2385.51 624.7 2384.61 624.3 2383.61 624.3H2321.51C2320.51 624.3 2319.61 624.7 2318.81 625.5C2318.21 626.1 2317.91 626.9 2317.91 627.9V759H2278.31V627.9C2278.31 626.9 2277.91 626.1 2277.11 625.5C2276.51 624.7 2275.71 624.3 2274.71 624.3H2212.31C2211.31 624.3 2210.41 624.7 2209.61 625.5C2209.01 626.1 2208.71 626.9 2208.71 627.9V759H2169.41Z" fill="#F6F6F6"/>
</svg>
